# xmcd CD database file
#
# Track frame offsets:
#	150
#	22502
#	43670
#	66047
#
# Disc length: 1159 seconds
#
# Revision: 0
# Processed by: cddbd v1.5PL3 Copyright (c) Steve Scherf et al.
# Submitted via: CDex 1.50
#
DISCID=24048504
DTITLE=勝又亜依子 - I need you in my life
DYEAR=2003
DGENRE=JPop
TTITLE0=I need you in my life
TTITLE1=Stay
TTITLE2=I need you in my life (Instrumental)
TTITLE3=Stay (Instrumental)
EXTD=YEAR: 2003
EXTT0=
EXTT1=
EXTT2=
EXTT3=
PLAYORDER=
